<svg id="Layer_1" data-name="Layer 1" xmlns="http://www.w3.org/2000/svg" viewBox="0 0 500 500">
  <defs>
    <style>
      .cls-1 {
        fill: #259dd1;
      }

      .cls-2, .cls-3 {
        fill: #fff;
      }

      .cls-2 {
        opacity: 0.6;
      }
    </style>
  </defs>
  <title>logo-bg</title>
  <rect id="BG" class="cls-1" width="500" height="500"/>
  <g id="Bean">
    <path id="Bean_BG" data-name="Bean BG" class="cls-2" d="M355.47,146.17S342,132.62,318.08,134s-91.84,26.16-124.25,49.33-77.37,60.84-82,87.64S102,309.13,131.9,341.2s107.49,8.94,107.49,8.94,68.53-23.61,105-73.8,36.82-72.48,36.82-72.48,5.91-19.09-2.21-36.73-23.48-21-23.48-21Z"/>
    <path id="Bean_FG" data-name="Bean FG" class="cls-3" d="M355.47,146.17S342,132.62,318.08,134s-91.84,26.16-124.25,49.33-77.37,60.84-82,87.64S102,309.13,131.9,341.2s107.49,8.94,107.49,8.94,68.53-23.61,105-73.8,36.82-72.48,36.82-72.48,5.91-19.09-2.21-36.73-21.55-17-21.55-17-17.33-4.32-30.67,7.6-13.14,12.3-19.7,17-16.25,6-23.8,11.61-37.71,41.48-71.49,63.86-50.6,27.14-59.16,34.76S141.76,301,135.86,299s-1-18.17,11.12-26.54,15.06-6.37,32.32-15.28S229,204,277.82,174.24s77.65-28.07,77.65-28.07Z"/>
  </g>
</svg>
