<svg id="Layer_1" data-name="Layer 1" xmlns="http://www.w3.org/2000/svg" viewBox="0 0 380 380">
  <defs>
    <style>
      .cls-1 {
        fill: #259dd1;
      }

      .cls-2, .cls-3 {
        fill: #fff;
      }

      .cls-3 {
        opacity: 0.6;
      }
    </style>
  </defs>
  <title>logo</title>
  <g>
    <circle class="cls-1" cx="190" cy="190" r="182.5"/>
    <path class="cls-2" d="M250,75a175,175,0,1,1-123.74,51.26A173.82,173.82,0,0,1,250,75m0-15C145.07,60,60,145.07,60,250s85.07,190,190,190,190-85.07,190-190S354.93,60,250,60Z" transform="translate(-60 -60)"/>
  </g>
  <g id="Bean">
    <path id="Bean_BG" data-name="Bean BG" class="cls-3" d="M325.25,175.84s-9.62-9.67-26.68-8.71S233,185.79,209.92,202.32s-55.21,43.41-58.5,62.54-7,27.26,14.31,50.14,76.7,6.38,76.7,6.38,48.89-16.85,74.88-52.66S343.58,217,343.58,217s4.22-13.62-1.57-26.21-16.76-14.95-16.76-14.95Z" transform="translate(-60 -60)"/>
    <path id="Bean_FG" data-name="Bean FG" class="cls-2" d="M325.25,175.84s-9.62-9.67-26.68-8.71S233,185.79,209.92,202.32s-55.21,43.41-58.5,62.54-7,27.26,14.31,50.14,76.7,6.38,76.7,6.38,48.89-16.85,74.88-52.66S343.58,217,343.58,217s4.22-13.62-1.57-26.21-15.38-12.12-15.38-12.12-12.36-3.08-21.88,5.42-9.38,8.78-14.06,12.12-11.6,4.25-17,8.28-26.9,29.6-51,45.57-36.11,19.37-42.22,24.8-7.72,11.47-11.93,10-.72-13,7.93-18.93,10.75-4.55,23.07-10.91,35.44-38,70.29-59.18,55.41-20,55.41-20Z" transform="translate(-60 -60)"/>
  </g>
</svg>
